/* XPM */
static char *d9e356bf09254fd4a4f3dabfe9696073Wrn8Zur9d1j3K8B1[] = {
/* columns rows colors chars-per-pixel */
"32 32 195 2 ",
"   c None",
".  c black",
"X  c #010000",
"o  c #020000",
"O  c #030000",
"+  c #020001",
"@  c #030002",
"#  c #040000",
"$  c #050000",
"%  c #050001",
"&  c #050002",
"*  c #040003",
"=  c #050003",
"-  c #060002",
";  c #050004",
":  c #060004",
">  c #070004",
",  c #080003",
"<  c #080004",
"1  c #080005",
"2  c #090005",
"3  c #0A0005",
"4  c #080006",
"5  c #090007",
"6  c #0A0006",
"7  c #0C0007",
"8  c #0B0008",
"9  c #0B0009",
"0  c #0B0209",
"q  c #0C0008",
"w  c #0D0009",
"e  c #0E000A",
"r  c #0F000B",
"t  c #10000C",
"y  c #12000E",
"u  c #13000E",
"i  c #13000F",
"p  c #14000F",
"a  c #140010",
"s  c #150011",
"d  c #160012",
"f  c #170012",
"g  c #160112",
"h  c #190115",
"j  c #1A0016",
"k  c #1B0017",
"l  c #1C0017",
"z  c #1B0018",
"x  c #1C0018",
"c  c #1D0018",
"v  c #1E001A",
"b  c #1F001A",
"n  c #20001B",
"m  c #20021B",
"M  c #21001C",
"N  c #20011C",
"B  c #21011D",
"V  c #22001D",
"C  c #20021C",
"Z  c #21001E",
"A  c #22001E",
"S  c #23001E",
"D  c #23011E",
"F  c #23021E",
"G  c #23021F",
"H  c #22071E",
"J  c #240020",
"K  c #240220",
"L  c #240320",
"P  c #250221",
"I  c #260322",
"U  c #240420",
"Y  c #250421",
"T  c #260421",
"R  c #260422",
"E  c #270423",
"W  c #270523",
"Q  c #280323",
"!  c #280523",
"~  c #280424",
"^  c #290424",
"/  c #280425",
"(  c #290425",
")  c #290525",
"_  c #2A0425",
"`  c #2A0426",
"'  c #2B0426",
"]  c #250A20",
"[  c #2C1227",
"{  c #221D20",
"}  c #221D21",
"|  c #211E20",
" . c #241E23",
".. c #2A1E28",
"X. c #292227",
"o. c #292228",
"O. c #2E212B",
"+. c #302A2E",
"@. c #362533",
"#. c #362634",
"$. c #382735",
"%. c #392B35",
"&. c #382B36",
"*. c #392B36",
"=. c #392C36",
"-. c #392D36",
";. c #3B2D38",
":. c #3E2F3B",
">. c #373334",
",. c #383536",
"<. c #3B3039",
"1. c #3C3039",
"2. c #3E323D",
"3. c #3F363D",
"4. c #3F363E",
"5. c #41363F",
"6. c #423741",
"7. c #423941",
"8. c #453B43",
"9. c #554953",
"0. c #5E545C",
"q. c #61535F",
"w. c #695B67",
"e. c #6A5A68",
"r. c #6F606D",
"t. c #746B72",
"y. c #756C73",
"u. c #776E75",
"i. c #7F737D",
"p. c #81747F",
"a. c #837581",
"s. c #90878F",
"d. c #928690",
"f. c #918890",
"g. c #938A91",
"h. c #938892",
"j. c #958893",
"k. c #958A93",
"l. c #998C97",
"z. c #988E96",
"x. c #969394",
"c. c #979495",
"v. c #9B9299",
"b. c #9B929A",
"n. c #9C949B",
"m. c #9F969F",
"M. c #9D989C",
"N. c #9F9A9E",
"B. c #A59CA4",
"V. c #A3A2A2",
"C. c #A7A4A5",
"Z. c #ABA5A9",
"A. c #A9A7A8",
"S. c #AAA4AA",
"D. c #ABA5AA",
"F. c #ADA5AC",
"G. c #ACAEAB",
"H. c #ACACAC",
"J. c #ACAEAC",
"K. c #AFADAE",
"L. c #B1A9B0",
"P. c #B6B0B5",
"I. c #B7B3B6",
"U. c #B8B7B7",
"Y. c #BDB7BC",
"T. c #C0BDC0",
"R. c #C1BFC0",
"E. c #C3BFC2",
"W. c #C5C5C5",
"Q. c #C6C4C5",
"!. c #C7C6C6",
"~. c #D2D1D1",
"^. c #D5D3D4",
"/. c #D5D5D5",
"(. c #D9D5D9",
"). c #DADAD9",
"_. c #DEDADE",
"`. c #DEDBDE",
"'. c #DFE0DE",
"]. c #E2DFE1",
"[. c #E4E1E3",
"{. c #E4E1E4",
"}. c #E8E5E8",
"|. c #E9E5E9",
" X c #EAE6E9",
".X c #EBEAEA",
"XX c #EBEAEB",
"oX c #E9ECE9",
"OX c #F1EEF1",
"+X c #F7F6F7",
"@X c #F9F7F8",
"#X c #FAF8FA",
"$X c #FBF9FB",
"%X c #FCFBFC",
"&X c white",
/* pixels */
"                        U U U U U U U U                         ",
"                  U U U U U U U U U U U U U U                   ",
"              U U U U U U U U U U U U U U U U U U               ",
"            U U U U v k v v v v v v v v v v v l k C             ",
"          U U U U U g g i i i i i i i i i i i g g C U           ",
"        U U U U v g K.).~.~.~.~.~.~.~.~.~.~.~./.^.#.r U         ",
"      U U U U U v r '.&X&X&X&X&X&X&X&X&X&X&X&X&X&X<.# U U       ",
"    U U U U U U z r oX&X&X&X&X&X&X&X&X&X&X&X&X&X&X%.6 U U U     ",
"    U U U U U U C k i.v.z.k.h.d.h.U.&X&X&X&X&X&X&X%.6 U U U     ",
"  U U U U U U U U ~ # . . . . . . # +.P.&X&X&X&X&X%.6 U U U U   ",
"  U U U U U U U U U L L L Q L 6 r C 6 . A.&X&X&X&X%.6 U U U U   ",
"  U U U U U U U U U U U ~ z . %.%.. C i 8 |.&X&X&X%.6 U U U U   ",
"U U U U U U U U U U U U m 6 c.&X&Xx.> C . u.&X&X&X%.6 U U U U U ",
"U U U U U U C v v v C U . q.&X&X&X&X9.. . ..&X&X&X%.6 U U U U U ",
"U U U U U U C 7 8 r C ~ . k.&X&X&X&X_.m.B.P.&X&X&X%.6 U U U U U ",
"U U U U U r @.!.!.!.:.r . v.&X&X&X&X&X&X&X&X&X&X&X%.6 U U U U U ",
"U U U U U # 1.&X&X&X8.. . n.&X&X&X&X&X&X&X&X&X&X&X%.6 U U U U U ",
"U U U U U 6 =.&X&X&X2.> . z.&X&X&X&X{.F.L.Y.&X&X&X=.6 U U U U U ",
"U U U U U , ;.&X&X&X7.# . w.&X&X&X&X0.. . O.&X&X&X$.6 U U U U U ",
"U U U U U i [ #X&X&Xy.. C 8 C.&X&XV.6 v . t.&X&XOX] p U U U U U ",
"  U U U U C . E.&X&X].# g v # 6.5.# v g # [.&X&XE.. C U U U U   ",
"  U U U U U . e.&X&X&XM.. r C 6 6 C r . M.&X&X&Xr.. U U U U U   ",
"  U U U U U l . (.&X&X&XA.{ . . . .  .A.&X&X&X_.> k U U U U U   ",
"    U U U U ~ # o.%X&X&X&X+XA.p.a.K.@X&X&X&X#XX.# ~ U U U U     ",
"    U U U U U ~ . ,.XX&X&X&X&X&X&X&X&X&X&XXX>.. ~ U U U U U     ",
"      U U U U U ~ . { G.&X&X&X&X&X&X&X&XK.{ . ~ U U U U U       ",
"        U U U U U ~ r . 4.h.E.|.|.E.s.4.. r ~ U U U U U         ",
"          U U U U U U C 6 . 6 H H 6 . 6 C ! U U U U U           ",
"            U U U U U U U L m g g m U U U U U U U U             ",
"              U U U U U U U U U U U U U U U U U U               ",
"                  U U U U U U U U U U U U U U                   ",
"                        U U U U U U U U                         "
};
