/* XPM */
static char *dd88f8c7003547bfd2970b3d385d87a6B7q4jBdOIPBEy5Rd[] = {
/* columns rows colors chars-per-pixel */
"64 64 124 2 ",
"   c None",
".  c #020000",
"X  c #0A0005",
"o  c #0E000A",
"O  c #12000D",
"+  c #160212",
"@  c #190115",
"#  c #1E011A",
"$  c #1E0B1A",
"%  c #21011D",
"&  c #220D1D",
"*  c #240420",
"=  c #280424",
"-  c #270B23",
";  c #280925",
":  c #2F0D2B",
">  c #291525",
",  c #2C1B29",
"<  c #33152E",
"1  c #351531",
"2  c #361832",
"3  c #3A1D37",
"4  c #3B1F38",
"5  c #372533",
"6  c #392635",
"7  c #3E223B",
"8  c #41253D",
"9  c #432540",
"0  c #452A42",
"q  c #493446",
"w  c #4C3248",
"e  c #51374E",
"r  c #523A4F",
"t  c #543B51",
"y  c #5A4357",
"u  c #564D54",
"i  c #5B4358",
"p  c #5A4A58",
"a  c #634C5F",
"s  c #654E62",
"d  c #675164",
"f  c #695366",
"g  c #665A63",
"h  c #6D556A",
"j  c #6D5B6B",
"k  c #70576D",
"l  c #71596E",
"z  c #756372",
"x  c #786076",
"c  c #7A6778",
"v  c #7F6C7D",
"b  c #7E737B",
"n  c #816E7E",
"m  c #80747E",
"M  c #897587",
"N  c #887D86",
"B  c #927D8F",
"V  c #947F92",
"C  c #8E848C",
"Z  c #938491",
"A  c #978895",
"S  c #9C8C9A",
"D  c #9E919C",
"F  c #A1939F",
"G  c #A290A0",
"H  c #A69AA4",
"J  c #A89BA6",
"K  c #AB9DA9",
"L  c #AEA4AD",
"P  c #B4A5B2",
"I  c #B5AAB4",
"U  c #BFB5BD",
"Y  c #C0B6BE",
"T  c #C1B7C0",
"R  c #C4BCC3",
"E  c #C9BBC7",
"W  c #CEC5CD",
"Q  c #CBC4CB",
"!  c #CFC8CE",
"~  c #D0C3CF",
"^  c #D0C8CF",
"/  c #D3CBD3",
"(  c #D4CBD3",
")  c #D5CAD5",
"_  c #D8CED7",
"`  c #D6D0D6",
"'  c #D5D0D4",
"]  c #D8D2D7",
"[  c #DCD7DC",
"{  c #D9D5D8",
"}  c #E0DBDF",
"|  c #E0DAE0",
" . c #E1DCE0",
".. c #E6DEE5",
"X. c #E6DEE6",
"o. c #E1DDE1",
"O. c #E4E0E4",
"+. c #E6E2E5",
"@. c #E7E1E7",
"#. c #E7E3E6",
"$. c #E9E6E9",
"%. c #EBE4EA",
"&. c #EDEAEC",
"*. c #EFEDEF",
"=. c #F3F1F3",
"-. c #F5F3F5",
";. c #F5F4F5",
":. c #F6F5F6",
">. c #F7F6F7",
",. c #F4F2F4",
"<. c #F7F7F8",
"1. c #F8F7F8",
"2. c #FBF6FB",
"3. c #F9F8F9",
"4. c #FAF9FA",
"5. c #FBFAFB",
"6. c #FCFBFC",
"7. c gray99",
"8. c #FDFCFD",
"9. c #FDFDFD",
"0. c #FEFDFD",
"q. c #FEFEFF",
"w. c white",
"e. c #FFFFFF",
/* pixels */
"                                                    * * * * * * * * * * * *                                                     ",
"                                            * * * * * * * * * * * * * * * * * * * *                                             ",
"                                        * * * * * * * * * * * * * * * * * * * * * * * *                                         ",
"                                  * * * * * * * * * * * * * * * * * * * * * * * * * * * * * *                                   ",
"                                * * * * * * * * * * * * * * * * * * * * * * * * * * * * * * * *                                 ",
"                            * * * * * * * * * * * * * * * * * * * * * * * * * * * * * * * * * * * *                             ",
"                          * * * * * * * * * * * * * * * * * * * * * * * * * * * * * * * * * * * * * *                           ",
"                      * * * * * * * * * * * * * * * * * * * * * * * * * * * * * * * * * * * * * * * * * *                       ",
"                    * * * * * * * * * * % % % % % % % % % % % % % % % % % % % % % % % % % % % % % % % * * *                     ",
"                  * * * * * * * * * * * O o X X X X X X X X X X X X X X X X X X X X X X X X X X X X # = * * *                   ",
"                * * * * * * * * * * % O M R U U Y Y Y Y Y Y Y Y Y Y Y U U U U U U U U U U U Y Y T R w o * * * *                 ",
"              * * * * * * * * * * * # . Q w.w.w.w.w.w.w.w.w.w.w.w.w.w.w.w.w.w.w.w.w.w.w.w.w.w.w.w.w.s . * * * * *               ",
"              * * * * * * * * * * * % X I w.w.w.w.w.w.w.w.w.w.w.w.w.w.w.w.w.w.w.w.w.w.w.w.w.w.w.w.w.i . * * * * *               ",
"            * * * * * * * * * * * * % X I w.w.w.w.w.w.w.w.w.w.w.w.w.w.w.w.w.w.w.w.w.w.w.w.w.w.w.w.w.i . * * * * * *             ",
"          * * * * * * * * * * * * * % X I w.w.w.w.w.w.w.w.w.w.w.w.w.w.w.w.w.w.w.w.w.w.w.w.w.w.w.w.w.i . * * * * * * *           ",
"          * * * * * * * * * * * * * % . U w.w.w.w.w.w.w.w.w.w.w.w.w.w.w.w.w.w.w.w.w.w.w.w.w.w.w.w.w.i . * * * * * * *           ",
"        * * * * * * * * * * * * * * % X P w.w.w.w.w.4.<.1.1.1.>.w.w.w.w.w.w.w.w.w.w.w.w.w.w.w.w.w.w.i . * * * * * * * *         ",
"      * * * * * * * * * * * * * * * * % 1 0 8 8 8 8 7 3 4 4 3 3 7 w j H &.w.w.w.w.w.w.w.w.w.w.w.w.w.i . * * * * * * * * *       ",
"      * * * * * * * * * * * * * * * * * + X o o o o o o o o o o o X . . & b 1.w.w.w.w.w.w.w.w.w.w.w.i . * * * * * * * * *       ",
"      * * * * * * * * * * * * * * * * * * * * * * * * * * * * * * * * * O . , ~ w.w.w.w.w.w.w.w.w.w.i . * * * * * * * * *       ",
"    * * * * * * * * * * * * * * * * * * * * * * * * * * * * * * * * * * * * . X E w.w.w.w.w.w.w.w.w.i . * * * * * * * * * *     ",
"    * * * * * * * * * * * * * * * * * * * * * * * * * * * * * * * * * * * * = . o | w.w.w.w.w.w.w.w.i . * * * * * * * * * *     ",
"  * * * * * * * * * * * * * * * * * * * * * * * * * * * * % o . . o % * * * * = . 0 w.w.w.w.w.w.w.w.i . * * * * * * * * * * *   ",
"  * * * * * * * * * * * * * * * * * * * * * * * * * * = O . 7 f f 7 . O = * * * % . H w.w.w.w.w.w.w.i . * * * * * * * * * * *   ",
"  * * * * * * * * * * * * * * * * * * * * * * * * * = X @ H w.w.w.4.H @ X = * * * . 3 w.w.w.w.w.w.w.i . * * * * * * * * * * *   ",
"  * * * * * * * * * * * * * * * * * * * * * * * * * + + ( w.w.w.w.w.w./ + + * * * # X Q w.w.w.w.w.w.i . * * * * * * * * * * *   ",
"* * * * * * * * * * * * * * * * * * * * * * * * * % . V w.w.w.w.w.w.w.w.B . % * * * . Z w.w.w.w.w.w.i . * * * * * * * * * * * * ",
"* * * * * * * * * * * * * * * * * * * * * * * * * # O ] w.w.w.w.w.w.w.w.[ . . . . . . a w.w.w.w.w.w.i . * * * * * * * * * * * * ",
"* * * * * * * * * * * * * % % % % % % % % * * * * + = $.w.w.w.w.w.w.w.w.4.l p d d f u D w.w.w.w.w.w.i . * * * * * * * * * * * * ",
"* * * * * * * * * * * * = # . . . . . . @ = * * * O 2 >.w.w.w.w.w.w.w.w.w.w.w.w.w.w.w.w.w.w.w.w.w.w.i . * * * * * * * * * * * * ",
"* * * * * * * * * * * * O 0 J F D D F K t o * * * o 7 w.w.w.w.w.w.w.w.w.w.w.w.w.w.w.w.w.w.w.w.w.w.w.i . * * * * * * * * * * * * ",
"* * * * * * * * * * * * . s w.w.w.w.w.w.v . * * * o 8 w.w.w.w.w.w.w.w.w.w.w.w.w.w.w.w.w.w.w.w.w.w.w.i . * * * * * * * * * * * * ",
"* * * * * * * * * * * * . i w.w.w.w.w.w.l . * * * X 9 w.w.w.w.w.w.w.w.w.w.w.w.w.w.w.w.w.w.w.w.w.w.w.i . * * * * * * * * * * * * ",
"* * * * * * * * * * * * . i w.w.w.w.w.w.j . * * * o 7 w.w.w.w.w.w.w.w.w.w.w.w.w.w.w.w.w.w.w.w.w.w.w.i . * * * * * * * * * * * * ",
"* * * * * * * * * * * * . i w.w.w.w.w.w.j . * * * o 3 4.w.w.w.w.w.w.w.w.w.w.w.w.w.w.w.w.w.w.w.w.w.w.i . * * * * * * * * * * * * ",
"* * * * * * * * * * * * . y w.w.w.w.w.w.z . * * * O : *.w.w.w.w.w.w.w.w.4.M z v v n j K w.w.w.w.w.w.y . * * * * * * * * * * * * ",
"* * * * * * * * * * * * . y w.w.w.w.w.w.c . * * * @ @ o.w.w.w.w.w.w.w.w.+.. . . . . . a w.w.w.w.w.w.t . * * * * * * * * * * * * ",
"* * * * * * * * * * * * . t w.w.w.w.w.w.Z . * * * % . G w.w.w.w.w.w.w.w.S . % * * % . Z w.w.w.w.w.w.0 X * * * * * * * * * * * * ",
"  * * * * * * * * * * * X 9 w.w.w.w.w.w.R X % * * * O $ $.w.w.w.w.w.w.+.$ O * * * % X R w.w.w.w.w.>.1 O * * * * * * * * * * *   ",
"  * * * * * * * * * * * @ % +.w.w.w.w.w.w.1 X * * * = . , T w.w.w.w.U > . = * * * X 1 w.w.w.w.w.w.' @ @ * * * * * * * * * * *   ",
"  * * * * * * * * * * * % . L w.w.w.w.w.w.A . * * * * = X O t n v e o X = * * * * . S w.w.w.w.w.w.K . % * * * * * * * * * * *   ",
"  * * * * * * * * * * * * . h w.w.w.w.w.w.w.< . = * * * * # . . . X # * * * * = . < w.w.w.w.w.w.w.h . * * * * * * * * * * * *   ",
"    * * * * * * * * * * * + % =.w.w.w.w.w.w.W . o = * * * * * * * * * * * * = o . ^ w.w.w.w.w.w.>.- O * * * * * * * * * * *     ",
"    * * * * * * * * * * * * . B w.w.w.w.w.w.w.K . X = * * * * * * * * * * * X . P w.w.w.w.w.w.w.S . * * * * * * * * * * * *     ",
"      * * * * * * * * * * * O $ -.w.w.w.w.w.w.w.P + . @ * * * * * * * * @ . + I w.w.w.w.w.w.w.6.- o * * * * * * * * * * *       ",
"      * * * * * * * * * * * * . k w.w.w.w.w.w.w.w.X.g O . . O + + o . . O g X.w.w.w.w.w.w.w.w.x . * * * * * * * * * * * *       ",
"      * * * * * * * * * * * * # . P w.w.w.w.w.w.w.w.w.' N t 1 * ; 3 y C { w.w.w.w.w.w.w.w.w.P . # * * * * * * * * * * * *       ",
"        * * * * * * * * * * * * o o _ w.w.w.w.w.w.w.w.w.w.w.-.+.#.4.w.w.w.w.w.w.w.w.w.w.w.) X o * * * * * * * * * * * *         ",
"          * * * * * * * * * * * = . + _ w.w.w.w.w.w.w.w.w.w.w.w.w.w.w.w.w.w.w.w.w.w.w.w.) + . = * * * * * * * * * * *           ",
"          * * * * * * * * * * * * = . + I w.w.w.w.w.w.w.w.w.w.w.w.w.w.w.w.w.w.w.w.w.w.I O . = * * * * * * * * * * * *           ",
"            * * * * * * * * * * * * = X . m w.w.w.w.w.w.w.w.w.w.w.w.w.w.w.w.w.w.w.w.m . X = * * * * * * * * * * * *             ",
"              * * * * * * * * * * * * = @ . 5 L w.w.w.w.w.w.w.w.w.w.w.w.w.w.w.w.L 6 . @ = * * * * * * * * * * * *               ",
"              * * * * * * * * * * * * * * * . . q D o.w.w.w.w.w.w.w.w.w.w.o.S q . . * * * * * * * * * * * * * * *               ",
"                * * * * * * * * * * * * * * * % . . % t n L W } o.! L n r % . . % * * * * * * * * * * * * * * *                 ",
"                  * * * * * * * * * * * * * * * * * + . . . @ % % @ . . . @ * * * * * * * * * * * * * * * * *                   ",
"                    * * * * * * * * * * * * * * * * * * * % @ + + @ % * * * * * * * * * * * * * * * * * * *                     ",
"                      * * * * * * * * * * * * * * * * * * * * * * * * * * * * * * * * * * * * * * * * * *                       ",
"                          * * * * * * * * * * * * * * * * * * * * * * * * * * * * * * * * * * * * * *                           ",
"                            * * * * * * * * * * * * * * * * * * * * * * * * * * * * * * * * * * * *                             ",
"                                * * * * * * * * * * * * * * * * * * * * * * * * * * * * * * * *                                 ",
"                                  * * * * * * * * * * * * * * * * * * * * * * * * * * * * * *                                   ",
"                                        * * * * * * * * * * * * * * * * * * * * * * * *                                         ",
"                                            * * * * * * * * * * * * * * * * * * * *                                             ",
"                                                    * * * * * * * * * * * *                                                     "
};
