/* XPM */
static char *_f42bf4ff1104513fdbcbaf0d253fb0cT8Jtjegt9MpQCFLY[] = {
/* columns rows colors chars-per-pixel */
"16 16 96 2 ",
"   c None",
".  c black",
"X  c #010000",
"o  c #020000",
"O  c #030001",
"+  c #030003",
"@  c #070306",
"#  c #0A0005",
"$  c #0A0006",
"%  c #0C0007",
"&  c #080407",
"*  c #080607",
"=  c #0D0008",
"-  c #0F000A",
";  c #0C030B",
":  c #0E050C",
">  c #0D090C",
",  c #150011",
"<  c #150012",
"1  c #160012",
"2  c #170013",
"3  c #140212",
"4  c #160212",
"5  c #180615",
"6  c #1F021B",
"7  c #181016",
"8  c #20031B",
"9  c #21021D",
"0  c #22021C",
"q  c #22021D",
"w  c #24001F",
"e  c #22041D",
"r  c #250321",
"t  c #260122",
"y  c #260222",
"u  c #260322",
"i  c #240420",
"p  c #250421",
"a  c #260422",
"s  c #260522",
"d  c #270523",
"f  c #290424",
"g  c #280524",
"h  c #2A0426",
"j  c #2B0527",
"k  c #271D25",
"l  c #393438",
"z  c #3B363A",
"x  c #3C373B",
"c  c #3F353E",
"v  c #403B3F",
"b  c #4F3F4C",
"n  c #4D404A",
"m  c #4B4849",
"M  c #4F484D",
"N  c #544953",
"B  c #554953",
"V  c #524D52",
"C  c #5E545C",
"Z  c #6F656C",
"A  c #736A70",
"S  c #746A71",
"D  c #797077",
"F  c #797377",
"G  c #7B7279",
"H  c #81797E",
"J  c #81797F",
"K  c #898087",
"L  c #969293",
"P  c #969394",
"I  c #979596",
"U  c #9C9B9A",
"Y  c #A19C9F",
"T  c #A09E9F",
"R  c #A19DA1",
"E  c #A3A0A2",
"W  c #A6A2A5",
"Q  c #A5A7A4",
"!  c #A3ACA4",
"~  c #A4ACA4",
"^  c #ABA9AA",
"/  c #B8B5B7",
"(  c #B6BAB5",
")  c #B7BAB7",
"_  c #BAB7B9",
"`  c #BBB7BA",
"'  c #B8BAB8",
"]  c #D5D2D4",
"[  c #DBD9DB",
"{  c #E8EAE8",
"}  c #EBEAEB",
"|  c #EEEBEE",
" . c #EEEEEE",
".. c #EFEEEF",
"X. c #F5F3F5",
"o. c white",
/* pixels */
"          i i i i i i           ",
"      i i X X X X X X X =       ",
"    i 6 8 Z J G F S A J b 1     ",
"  i i 1 5 o.o.o.o.o.o.o.Q X r   ",
"  i i 9 e M C c m / o.o.L X r   ",
"i i i i g % X X X X R o.P X r i ",
"i i g = X 1 k { { X = o.Y X r i ",
"i r 1 n F X V o.o.| ] o.I X r i ",
"i r X ( o.X v o.o.X.[ o.U X r i ",
"i r X W o.7 > ....& : o.Y X r i ",
"i i X B o.^ X X X X E o.B X i i ",
"  i 9 X ( o._ l x _ o.' X 9 i   ",
"  i g 1 & ~ o.o.o.o.! @ 1 g i   ",
"    i g 1 X l K K l X 1 g i     ",
"      i i w # X X # w i i       ",
"          i i i i i i           "
};
